<?xml version="1.0" encoding="utf-8"?>
<!-- Generator: Adobe Illustrator 21.1.0, SVG Export Plug-In . SVG Version: 6.00 Build 0)  -->
<svg version="1.1" xmlns="http://www.w3.org/2000/svg" xmlns:xlink="http://www.w3.org/1999/xlink" x="0px" y="0px"
	 viewBox="0 0 513.2 116.2" style="enable-background:new 0 0 513.2 116.2;" xml:space="preserve">
<style type="text/css">
	.st0{fill:#FCFCFC;}
	.st1{clip-path:url(#SVGID_2_);fill:#C0C6DD;}
	.st2{clip-path:url(#SVGID_4_);fill:#0206D4;}
	.st3{fill:#DC4711;}
	.st4{clip-path:url(#SVGID_6_);fill:#0206D4;}
</style>
<g id="Слой_1">
	<path class="st0" d="M183.5,34.5H200v29.9c0,12.8-11.2,23.2-24.9,23.2c-13.7,0-24.8-10.4-24.8-23.2V34.5h16.4v29.9
		c0,5.7,2.3,9,8.4,9c6.2,0,8.4-3.3,8.4-9V34.5z"/>
	<path class="st0" d="M272.1,53.7v31.8h-15.6V55.9c0-6.4-4-9.4-9-9.4c-5.7,0-9.6,3.3-9.6,10.7v28.3h-15.6V33.6h15.6v4.9
		c2.8-3.8,8-6.3,14.8-6.3C263.1,32.2,272.1,39.7,272.1,53.7"/>
	<path class="st0" d="M296.7,19.7c0-5.1,4.3-9.3,9.3-9.3c5.1,0,9.3,4.3,9.3,9.3c0,5.1-4.3,9.3-9.3,9.3
		C301,29.1,296.7,24.8,296.7,19.7 M298.3,33.6h15.6v51.9h-15.6V33.6z"/>
	<path class="st0" d="M412.8,59.6c0-15.5,12.2-27.4,27.5-27.4c15.2,0,27.5,11.9,27.5,27.4c0,15.5-12.2,27.4-27.5,27.4
		C425.1,87,412.8,75,412.8,59.6 M452.2,59.6c0-7.4-5.2-12.2-11.9-12.2c-6.7,0-11.9,4.9-11.9,12.2c0,7.4,5.2,12.2,11.9,12.2
		C447.1,71.8,452.2,66.9,452.2,59.6"/>
	<path class="st0" d="M502.5,48.6v18.4c0,4.5,3.8,4.9,10.7,4.5v14.1c-20.3,2.1-26.2-4-26.2-18.6V48.6h-8.3V33.6h8.3V19.1h15.6v14.5
		h10.7v14.9H502.5z"/>
	<path class="st0" d="M368.4,32.2c-4.2,0-8.2,1-11.8,2.6V-0.3h-15.7v61.5h0.1c0.8,14.7,12.7,25.8,27.4,25.8
		c15.2,0,27.5-11.9,27.5-27.4C395.9,44.1,383.7,32.2,368.4,32.2 M368.4,71.8c-6.3,0-11.3-4.3-11.8-11v-2.5c0.6-6.6,5.5-11,11.8-11
		c6.7,0,11.9,4.9,11.9,12.2C380.4,66.9,375.2,71.8,368.4,71.8"/>
	<g>
		<defs>
			<path id="SVGID_1_" d="M67.5,5.9v61.8c0,9.7-8.1,17.6-18.1,17.6c-10,0-18.1-7.9-18.1-17.6V5.9H0v61.8c0,26.7,22.2,48.5,49.5,48.5
				c27.4,0,49.6-21.8,49.6-48.5V5.9H67.5z"/>
		</defs>
		<clipPath id="SVGID_2_">
			<use xlink:href="#SVGID_1_"  style="overflow:visible;"/>
		</clipPath>
		<path class="st1" d="M5.5-2.1c0,2.2-1.8,4-4,4c-2.2,0-4-1.8-4-4s1.8-4,4-4C3.7-6.1,5.5-4.3,5.5-2.1"/>
		<path class="st1" d="M17.5-2.1c0,2.2-1.8,4-4,4c-2.2,0-4-1.8-4-4s1.8-4,4-4C15.8-6.1,17.5-4.3,17.5-2.1"/>
		<path class="st1" d="M29.6-2.1c0,2.2-1.8,4-4,4c-2.2,0-4-1.8-4-4s1.8-4,4-4C27.8-6.1,29.6-4.3,29.6-2.1"/>
		<path class="st1" d="M41.7-2.1c0,2.2-1.8,4-4,4c-2.2,0-4-1.8-4-4s1.8-4,4-4C39.9-6.1,41.7-4.3,41.7-2.1"/>
		<path class="st1" d="M53.8-2.1c0,2.2-1.8,4-4,4c-2.2,0-4-1.8-4-4s1.8-4,4-4C52-6.1,53.8-4.3,53.8-2.1"/>
		<path class="st1" d="M65.9-2.1c0,2.2-1.8,4-4,4c-2.2,0-4-1.8-4-4s1.8-4,4-4C64.1-6.1,65.9-4.3,65.9-2.1"/>
		<path class="st1" d="M77.9-2.1c0,2.2-1.8,4-4,4c-2.2,0-4-1.8-4-4s1.8-4,4-4C76.2-6.1,77.9-4.3,77.9-2.1"/>
		<path class="st1" d="M90-2.1c0,2.2-1.8,4-4,4c-2.2,0-4-1.8-4-4s1.8-4,4-4C88.2-6.1,90-4.3,90-2.1"/>
		<path class="st1" d="M102.1-2.1c0,2.2-1.8,4-4,4c-2.2,0-4-1.8-4-4s1.8-4,4-4C100.3-6.1,102.1-4.3,102.1-2.1"/>
		<path class="st1" d="M114.2-2.1c0,2.2-1.8,4-4,4c-2.2,0-4-1.8-4-4s1.8-4,4-4C112.4-6.1,114.2-4.3,114.2-2.1"/>
		<path class="st1" d="M5.5,8.4c0,2.2-1.8,4-4,4c-2.2,0-4-1.8-4-4c0-2.2,1.8-4,4-4C3.7,4.5,5.5,6.2,5.5,8.4"/>
		<path class="st1" d="M17.5,8.4c0,2.2-1.8,4-4,4c-2.2,0-4-1.8-4-4c0-2.2,1.8-4,4-4C15.8,4.5,17.5,6.2,17.5,8.4"/>
		<path class="st1" d="M29.6,8.4c0,2.2-1.8,4-4,4c-2.2,0-4-1.8-4-4c0-2.2,1.8-4,4-4C27.8,4.5,29.6,6.2,29.6,8.4"/>
		<path class="st1" d="M41.7,8.4c0,2.2-1.8,4-4,4c-2.2,0-4-1.8-4-4c0-2.2,1.8-4,4-4C39.9,4.5,41.7,6.2,41.7,8.4"/>
		<path class="st1" d="M53.8,8.4c0,2.2-1.8,4-4,4c-2.2,0-4-1.8-4-4c0-2.2,1.8-4,4-4C52,4.5,53.8,6.2,53.8,8.4"/>
		<path class="st1" d="M65.9,8.4c0,2.2-1.8,4-4,4c-2.2,0-4-1.8-4-4c0-2.2,1.8-4,4-4C64.1,4.5,65.9,6.2,65.9,8.4"/>
		<path class="st1" d="M77.9,8.4c0,2.2-1.8,4-4,4c-2.2,0-4-1.8-4-4c0-2.2,1.8-4,4-4C76.2,4.5,77.9,6.2,77.9,8.4"/>
		<path class="st1" d="M90,8.4c0,2.2-1.8,4-4,4c-2.2,0-4-1.8-4-4c0-2.2,1.8-4,4-4C88.2,4.5,90,6.2,90,8.4"/>
		<path class="st1" d="M102.1,8.4c0,2.2-1.8,4-4,4c-2.2,0-4-1.8-4-4c0-2.2,1.8-4,4-4C100.3,4.5,102.1,6.2,102.1,8.4"/>
		<path class="st1" d="M114.2,8.4c0,2.2-1.8,4-4,4c-2.2,0-4-1.8-4-4c0-2.2,1.8-4,4-4C112.4,4.5,114.2,6.2,114.2,8.4"/>
		<path class="st1" d="M5.5,19c0,2.2-1.8,4-4,4c-2.2,0-4-1.8-4-4c0-2.2,1.8-4,4-4C3.7,15,5.5,16.8,5.5,19"/>
		<path class="st1" d="M17.5,19c0,2.2-1.8,4-4,4c-2.2,0-4-1.8-4-4c0-2.2,1.8-4,4-4C15.8,15,17.5,16.8,17.5,19"/>
		<path class="st1" d="M29.6,19c0,2.2-1.8,4-4,4c-2.2,0-4-1.8-4-4c0-2.2,1.8-4,4-4C27.8,15,29.6,16.8,29.6,19"/>
		<path class="st1" d="M41.7,19c0,2.2-1.8,4-4,4c-2.2,0-4-1.8-4-4c0-2.2,1.8-4,4-4C39.9,15,41.7,16.8,41.7,19"/>
		<path class="st1" d="M53.8,19c0,2.2-1.8,4-4,4c-2.2,0-4-1.8-4-4c0-2.2,1.8-4,4-4C52,15,53.8,16.8,53.8,19"/>
		<path class="st1" d="M65.9,19c0,2.2-1.8,4-4,4c-2.2,0-4-1.8-4-4c0-2.2,1.8-4,4-4C64.1,15,65.9,16.8,65.9,19"/>
		<path class="st1" d="M77.9,19c0,2.2-1.8,4-4,4c-2.2,0-4-1.8-4-4c0-2.2,1.8-4,4-4C76.2,15,77.9,16.8,77.9,19"/>
		<path class="st1" d="M90,19c0,2.2-1.8,4-4,4c-2.2,0-4-1.8-4-4c0-2.2,1.8-4,4-4C88.2,15,90,16.8,90,19"/>
		<path class="st1" d="M102.1,19c0,2.2-1.8,4-4,4c-2.2,0-4-1.8-4-4c0-2.2,1.8-4,4-4C100.3,15,102.1,16.8,102.1,19"/>
		<path class="st1" d="M114.2,19c0,2.2-1.8,4-4,4c-2.2,0-4-1.8-4-4c0-2.2,1.8-4,4-4C112.4,15,114.2,16.8,114.2,19"/>
		<path class="st1" d="M5.5,29.5c0,2.2-1.8,4-4,4c-2.2,0-4-1.8-4-4c0-2.2,1.8-4,4-4C3.7,25.5,5.5,27.3,5.5,29.5"/>
		<path class="st1" d="M17.5,29.5c0,2.2-1.8,4-4,4c-2.2,0-4-1.8-4-4c0-2.2,1.8-4,4-4C15.8,25.5,17.5,27.3,17.5,29.5"/>
		<path class="st1" d="M29.6,29.5c0,2.2-1.8,4-4,4c-2.2,0-4-1.8-4-4c0-2.2,1.8-4,4-4C27.8,25.5,29.6,27.3,29.6,29.5"/>
		<path class="st1" d="M41.7,29.5c0,2.2-1.8,4-4,4c-2.2,0-4-1.8-4-4c0-2.2,1.8-4,4-4C39.9,25.5,41.7,27.3,41.7,29.5"/>
		<path class="st1" d="M53.8,29.5c0,2.2-1.8,4-4,4c-2.2,0-4-1.8-4-4c0-2.2,1.8-4,4-4C52,25.5,53.8,27.3,53.8,29.5"/>
		<path class="st1" d="M65.9,29.5c0,2.2-1.8,4-4,4c-2.2,0-4-1.8-4-4c0-2.2,1.8-4,4-4C64.1,25.5,65.9,27.3,65.9,29.5"/>
		<path class="st1" d="M77.9,29.5c0,2.2-1.8,4-4,4c-2.2,0-4-1.8-4-4c0-2.2,1.8-4,4-4C76.2,25.5,77.9,27.3,77.9,29.5"/>
		<path class="st1" d="M90,29.5c0,2.2-1.8,4-4,4c-2.2,0-4-1.8-4-4c0-2.2,1.8-4,4-4C88.2,25.5,90,27.3,90,29.5"/>
		<path class="st1" d="M102.1,29.5c0,2.2-1.8,4-4,4c-2.2,0-4-1.8-4-4c0-2.2,1.8-4,4-4C100.3,25.5,102.1,27.3,102.1,29.5"/>
		<path class="st1" d="M114.2,29.5c0,2.2-1.8,4-4,4c-2.2,0-4-1.8-4-4c0-2.2,1.8-4,4-4C112.4,25.5,114.2,27.3,114.2,29.5"/>
		<path class="st1" d="M5.5,40c0,2.2-1.8,4-4,4c-2.2,0-4-1.8-4-4c0-2.2,1.8-4,4-4C3.7,36.1,5.5,37.8,5.5,40"/>
		<path class="st1" d="M17.5,40c0,2.2-1.8,4-4,4c-2.2,0-4-1.8-4-4c0-2.2,1.8-4,4-4C15.8,36.1,17.5,37.8,17.5,40"/>
		<path class="st1" d="M29.6,40c0,2.2-1.8,4-4,4c-2.2,0-4-1.8-4-4c0-2.2,1.8-4,4-4C27.8,36.1,29.6,37.8,29.6,40"/>
		<path class="st1" d="M41.7,40c0,2.2-1.8,4-4,4c-2.2,0-4-1.8-4-4c0-2.2,1.8-4,4-4C39.9,36.1,41.7,37.8,41.7,40"/>
		<path class="st1" d="M53.8,40c0,2.2-1.8,4-4,4c-2.2,0-4-1.8-4-4c0-2.2,1.8-4,4-4C52,36.1,53.8,37.8,53.8,40"/>
		<path class="st1" d="M65.9,40c0,2.2-1.8,4-4,4c-2.2,0-4-1.8-4-4c0-2.2,1.8-4,4-4C64.1,36.1,65.9,37.8,65.9,40"/>
		<path class="st1" d="M77.9,40c0,2.2-1.8,4-4,4c-2.2,0-4-1.8-4-4c0-2.2,1.8-4,4-4C76.2,36.1,77.9,37.8,77.9,40"/>
		<path class="st1" d="M90,40c0,2.2-1.8,4-4,4c-2.2,0-4-1.8-4-4c0-2.2,1.8-4,4-4C88.2,36.1,90,37.8,90,40"/>
		<path class="st1" d="M102.1,40c0,2.2-1.8,4-4,4c-2.2,0-4-1.8-4-4c0-2.2,1.8-4,4-4C100.3,36.1,102.1,37.8,102.1,40"/>
		<path class="st1" d="M114.2,40c0,2.2-1.8,4-4,4c-2.2,0-4-1.8-4-4c0-2.2,1.8-4,4-4C112.4,36.1,114.2,37.8,114.2,40"/>
		<path class="st1" d="M5.5,50.5c0,2.2-1.8,4-4,4c-2.2,0-4-1.8-4-4c0-2.2,1.8-4,4-4C3.7,46.6,5.5,48.4,5.5,50.5"/>
		<path class="st1" d="M17.5,50.5c0,2.2-1.8,4-4,4c-2.2,0-4-1.8-4-4c0-2.2,1.8-4,4-4C15.8,46.6,17.5,48.4,17.5,50.5"/>
		<path class="st1" d="M29.6,50.5c0,2.2-1.8,4-4,4c-2.2,0-4-1.8-4-4c0-2.2,1.8-4,4-4C27.8,46.6,29.6,48.4,29.6,50.5"/>
		<path class="st1" d="M41.7,50.5c0,2.2-1.8,4-4,4c-2.2,0-4-1.8-4-4c0-2.2,1.8-4,4-4C39.9,46.6,41.7,48.4,41.7,50.5"/>
		<path class="st1" d="M53.8,50.5c0,2.2-1.8,4-4,4c-2.2,0-4-1.8-4-4c0-2.2,1.8-4,4-4C52,46.6,53.8,48.4,53.8,50.5"/>
		<path class="st1" d="M65.9,50.5c0,2.2-1.8,4-4,4c-2.2,0-4-1.8-4-4c0-2.2,1.8-4,4-4C64.1,46.6,65.9,48.4,65.9,50.5"/>
		<path class="st1" d="M77.9,50.5c0,2.2-1.8,4-4,4c-2.2,0-4-1.8-4-4c0-2.2,1.8-4,4-4C76.2,46.6,77.9,48.4,77.9,50.5"/>
		<path class="st1" d="M90,50.5c0,2.2-1.8,4-4,4c-2.2,0-4-1.8-4-4c0-2.2,1.8-4,4-4C88.2,46.6,90,48.4,90,50.5"/>
		<path class="st1" d="M102.1,50.5c0,2.2-1.8,4-4,4c-2.2,0-4-1.8-4-4c0-2.2,1.8-4,4-4C100.3,46.6,102.1,48.4,102.1,50.5"/>
		<path class="st1" d="M114.2,50.5c0,2.2-1.8,4-4,4c-2.2,0-4-1.8-4-4c0-2.2,1.8-4,4-4C112.4,46.6,114.2,48.4,114.2,50.5"/>
		<path class="st1" d="M5.5,61.1c0,2.2-1.8,4-4,4c-2.2,0-4-1.8-4-4c0-2.2,1.8-4,4-4C3.7,57.1,5.5,58.9,5.5,61.1"/>
		<path class="st1" d="M17.5,61.1c0,2.2-1.8,4-4,4c-2.2,0-4-1.8-4-4c0-2.2,1.8-4,4-4C15.8,57.1,17.5,58.9,17.5,61.1"/>
		<path class="st1" d="M29.6,61.1c0,2.2-1.8,4-4,4c-2.2,0-4-1.8-4-4c0-2.2,1.8-4,4-4C27.8,57.1,29.6,58.9,29.6,61.1"/>
		<path class="st1" d="M41.7,61.1c0,2.2-1.8,4-4,4c-2.2,0-4-1.8-4-4c0-2.2,1.8-4,4-4C39.9,57.1,41.7,58.9,41.7,61.1"/>
		<path class="st1" d="M53.8,61.1c0,2.2-1.8,4-4,4c-2.2,0-4-1.8-4-4c0-2.2,1.8-4,4-4C52,57.1,53.8,58.9,53.8,61.1"/>
		<path class="st1" d="M65.9,61.1c0,2.2-1.8,4-4,4c-2.2,0-4-1.8-4-4c0-2.2,1.8-4,4-4C64.1,57.1,65.9,58.9,65.9,61.1"/>
		<path class="st1" d="M77.9,61.1c0,2.2-1.8,4-4,4c-2.2,0-4-1.8-4-4c0-2.2,1.8-4,4-4C76.2,57.1,77.9,58.9,77.9,61.1"/>
		<path class="st1" d="M90,61.1c0,2.2-1.8,4-4,4c-2.2,0-4-1.8-4-4c0-2.2,1.8-4,4-4C88.2,57.1,90,58.9,90,61.1"/>
		<path class="st1" d="M102.1,61.1c0,2.2-1.8,4-4,4c-2.2,0-4-1.8-4-4c0-2.2,1.8-4,4-4C100.3,57.1,102.1,58.9,102.1,61.1"/>
		<path class="st1" d="M114.2,61.1c0,2.2-1.8,4-4,4c-2.2,0-4-1.8-4-4c0-2.2,1.8-4,4-4C112.4,57.1,114.2,58.9,114.2,61.1"/>
		<path class="st1" d="M5.5,71.6c0,2.2-1.8,4-4,4c-2.2,0-4-1.8-4-4c0-2.2,1.8-4,4-4C3.7,67.6,5.5,69.4,5.5,71.6"/>
		<path class="st1" d="M17.5,71.6c0,2.2-1.8,4-4,4c-2.2,0-4-1.8-4-4c0-2.2,1.8-4,4-4C15.8,67.6,17.5,69.4,17.5,71.6"/>
		<path class="st1" d="M29.6,71.6c0,2.2-1.8,4-4,4c-2.2,0-4-1.8-4-4c0-2.2,1.8-4,4-4C27.8,67.6,29.6,69.4,29.6,71.6"/>
		<path class="st1" d="M41.7,71.6c0,2.2-1.8,4-4,4c-2.2,0-4-1.8-4-4c0-2.2,1.8-4,4-4C39.9,67.6,41.7,69.4,41.7,71.6"/>
		<path class="st1" d="M53.8,71.6c0,2.2-1.8,4-4,4c-2.2,0-4-1.8-4-4c0-2.2,1.8-4,4-4C52,67.6,53.8,69.4,53.8,71.6"/>
		<path class="st1" d="M65.9,71.6c0,2.2-1.8,4-4,4c-2.2,0-4-1.8-4-4c0-2.2,1.8-4,4-4C64.1,67.6,65.9,69.4,65.9,71.6"/>
		<path class="st1" d="M77.9,71.6c0,2.2-1.8,4-4,4c-2.2,0-4-1.8-4-4c0-2.2,1.8-4,4-4C76.2,67.6,77.9,69.4,77.9,71.6"/>
		<path class="st1" d="M90,71.6c0,2.2-1.8,4-4,4c-2.2,0-4-1.8-4-4c0-2.2,1.8-4,4-4C88.2,67.6,90,69.4,90,71.6"/>
		<path class="st1" d="M102.1,71.6c0,2.2-1.8,4-4,4c-2.2,0-4-1.8-4-4c0-2.2,1.8-4,4-4C100.3,67.6,102.1,69.4,102.1,71.6"/>
		<path class="st1" d="M114.2,71.6c0,2.2-1.8,4-4,4c-2.2,0-4-1.8-4-4c0-2.2,1.8-4,4-4C112.4,67.6,114.2,69.4,114.2,71.6"/>
		<path class="st1" d="M5.5,82.1c0,2.2-1.8,4-4,4c-2.2,0-4-1.8-4-4c0-2.2,1.8-4,4-4C3.7,78.2,5.5,79.9,5.5,82.1"/>
		<path class="st1" d="M17.5,82.1c0,2.2-1.8,4-4,4c-2.2,0-4-1.8-4-4c0-2.2,1.8-4,4-4C15.8,78.2,17.5,79.9,17.5,82.1"/>
		<path class="st1" d="M29.6,82.1c0,2.2-1.8,4-4,4c-2.2,0-4-1.8-4-4c0-2.2,1.8-4,4-4C27.8,78.2,29.6,79.9,29.6,82.1"/>
		<path class="st1" d="M41.7,82.1c0,2.2-1.8,4-4,4c-2.2,0-4-1.8-4-4c0-2.2,1.8-4,4-4C39.9,78.2,41.7,79.9,41.7,82.1"/>
		<path class="st1" d="M53.8,82.1c0,2.2-1.8,4-4,4c-2.2,0-4-1.8-4-4c0-2.2,1.8-4,4-4C52,78.2,53.8,79.9,53.8,82.1"/>
		<path class="st1" d="M77.9,82.1c0,2.2-1.8,4-4,4c-2.2,0-4-1.8-4-4c0-2.2,1.8-4,4-4C76.2,78.2,77.9,79.9,77.9,82.1"/>
		<path class="st1" d="M90,82.1c0,2.2-1.8,4-4,4c-2.2,0-4-1.8-4-4c0-2.2,1.8-4,4-4C88.2,78.2,90,79.9,90,82.1"/>
		<path class="st1" d="M102.1,82.1c0,2.2-1.8,4-4,4c-2.2,0-4-1.8-4-4c0-2.2,1.8-4,4-4C100.3,78.2,102.1,79.9,102.1,82.1"/>
		<path class="st1" d="M114.2,82.1c0,2.2-1.8,4-4,4c-2.2,0-4-1.8-4-4c0-2.2,1.8-4,4-4C112.4,78.2,114.2,79.9,114.2,82.1"/>
		<path class="st1" d="M5.5,92.7c0,2.2-1.8,4-4,4c-2.2,0-4-1.8-4-4c0-2.2,1.8-4,4-4C3.7,88.7,5.5,90.5,5.5,92.7"/>
		<path class="st1" d="M17.5,92.7c0,2.2-1.8,4-4,4c-2.2,0-4-1.8-4-4c0-2.2,1.8-4,4-4C15.8,88.7,17.5,90.5,17.5,92.7"/>
		<path class="st1" d="M29.6,92.7c0,2.2-1.8,4-4,4c-2.2,0-4-1.8-4-4c0-2.2,1.8-4,4-4C27.8,88.7,29.6,90.5,29.6,92.7"/>
		<path class="st1" d="M41.7,92.7c0,2.2-1.8,4-4,4c-2.2,0-4-1.8-4-4c0-2.2,1.8-4,4-4C39.9,88.7,41.7,90.5,41.7,92.7"/>
		<path class="st1" d="M53.8,92.7c0,2.2-1.8,4-4,4c-2.2,0-4-1.8-4-4c0-2.2,1.8-4,4-4C52,88.7,53.8,90.5,53.8,92.7"/>
		<path class="st1" d="M65.9,92.7c0,2.2-1.8,4-4,4c-2.2,0-4-1.8-4-4c0-2.2,1.8-4,4-4C64.1,88.7,65.9,90.5,65.9,92.7"/>
		<path class="st1" d="M77.9,92.7c0,2.2-1.8,4-4,4c-2.2,0-4-1.8-4-4c0-2.2,1.8-4,4-4C76.2,88.7,77.9,90.5,77.9,92.7"/>
		<path class="st1" d="M90,92.7c0,2.2-1.8,4-4,4c-2.2,0-4-1.8-4-4c0-2.2,1.8-4,4-4C88.2,88.7,90,90.5,90,92.7"/>
		<path class="st1" d="M102.1,92.7c0,2.2-1.8,4-4,4c-2.2,0-4-1.8-4-4c0-2.2,1.8-4,4-4C100.3,88.7,102.1,90.5,102.1,92.7"/>
		<path class="st1" d="M114.2,92.7c0,2.2-1.8,4-4,4c-2.2,0-4-1.8-4-4c0-2.2,1.8-4,4-4C112.4,88.7,114.2,90.5,114.2,92.7"/>
		<path class="st1" d="M5.5,103.2c0,2.2-1.8,4-4,4c-2.2,0-4-1.8-4-4c0-2.2,1.8-4,4-4C3.7,99.2,5.5,101,5.5,103.2"/>
		<path class="st1" d="M17.5,103.2c0,2.2-1.8,4-4,4c-2.2,0-4-1.8-4-4c0-2.2,1.8-4,4-4C15.8,99.2,17.5,101,17.5,103.2"/>
		<path class="st1" d="M29.6,103.2c0,2.2-1.8,4-4,4c-2.2,0-4-1.8-4-4c0-2.2,1.8-4,4-4C27.8,99.2,29.6,101,29.6,103.2"/>
		<path class="st1" d="M41.7,103.2c0,2.2-1.8,4-4,4c-2.2,0-4-1.8-4-4c0-2.2,1.8-4,4-4C39.9,99.2,41.7,101,41.7,103.2"/>
		<path class="st1" d="M53.8,103.2c0,2.2-1.8,4-4,4c-2.2,0-4-1.8-4-4c0-2.2,1.8-4,4-4C52,99.2,53.8,101,53.8,103.2"/>
		<path class="st1" d="M65.9,103.2c0,2.2-1.8,4-4,4c-2.2,0-4-1.8-4-4c0-2.2,1.8-4,4-4C64.1,99.2,65.9,101,65.9,103.2"/>
		<path class="st1" d="M77.9,103.2c0,2.2-1.8,4-4,4c-2.2,0-4-1.8-4-4c0-2.2,1.8-4,4-4C76.2,99.2,77.9,101,77.9,103.2"/>
		<path class="st1" d="M90,103.2c0,2.2-1.8,4-4,4c-2.2,0-4-1.8-4-4c0-2.2,1.8-4,4-4C88.2,99.2,90,101,90,103.2"/>
		<path class="st1" d="M102.1,103.2c0,2.2-1.8,4-4,4c-2.2,0-4-1.8-4-4c0-2.2,1.8-4,4-4C100.3,99.2,102.1,101,102.1,103.2"/>
		<path class="st1" d="M114.2,103.2c0,2.2-1.8,4-4,4c-2.2,0-4-1.8-4-4c0-2.2,1.8-4,4-4C112.4,99.2,114.2,101,114.2,103.2"/>
		<path class="st1" d="M5.5,113.7c0,2.2-1.8,4-4,4c-2.2,0-4-1.8-4-4c0-2.2,1.8-4,4-4C3.7,109.8,5.5,111.5,5.5,113.7"/>
		<path class="st1" d="M17.5,113.7c0,2.2-1.8,4-4,4c-2.2,0-4-1.8-4-4c0-2.2,1.8-4,4-4C15.8,109.8,17.5,111.5,17.5,113.7"/>
		<path class="st1" d="M29.6,113.7c0,2.2-1.8,4-4,4c-2.2,0-4-1.8-4-4c0-2.2,1.8-4,4-4C27.8,109.8,29.6,111.5,29.6,113.7"/>
		<path class="st1" d="M41.7,113.7c0,2.2-1.8,4-4,4c-2.2,0-4-1.8-4-4c0-2.2,1.8-4,4-4C39.9,109.8,41.7,111.5,41.7,113.7"/>
		<path class="st1" d="M53.8,113.7c0,2.2-1.8,4-4,4c-2.2,0-4-1.8-4-4c0-2.2,1.8-4,4-4C52,109.8,53.8,111.5,53.8,113.7"/>
		<path class="st1" d="M65.9,113.7c0,2.2-1.8,4-4,4c-2.2,0-4-1.8-4-4c0-2.2,1.8-4,4-4C64.1,109.8,65.9,111.5,65.9,113.7"/>
		<path class="st1" d="M77.9,113.7c0,2.2-1.8,4-4,4c-2.2,0-4-1.8-4-4c0-2.2,1.8-4,4-4C76.2,109.8,77.9,111.5,77.9,113.7"/>
		<path class="st1" d="M90,113.7c0,2.2-1.8,4-4,4c-2.2,0-4-1.8-4-4c0-2.2,1.8-4,4-4C88.2,109.8,90,111.5,90,113.7"/>
		<path class="st1" d="M102.1,113.7c0,2.2-1.8,4-4,4c-2.2,0-4-1.8-4-4c0-2.2,1.8-4,4-4C100.3,109.8,102.1,111.5,102.1,113.7"/>
		<path class="st1" d="M114.2,113.7c0,2.2-1.8,4-4,4c-2.2,0-4-1.8-4-4c0-2.2,1.8-4,4-4C112.4,109.8,114.2,111.5,114.2,113.7"/>
		<path class="st1" d="M5.5,124.2c0,2.2-1.8,4-4,4c-2.2,0-4-1.8-4-4c0-2.2,1.8-4,4-4C3.7,120.3,5.5,122.1,5.5,124.2"/>
		<path class="st1" d="M17.5,124.2c0,2.2-1.8,4-4,4c-2.2,0-4-1.8-4-4c0-2.2,1.8-4,4-4C15.8,120.3,17.5,122.1,17.5,124.2"/>
		<path class="st1" d="M29.6,124.2c0,2.2-1.8,4-4,4c-2.2,0-4-1.8-4-4c0-2.2,1.8-4,4-4C27.8,120.3,29.6,122.1,29.6,124.2"/>
		<path class="st1" d="M41.7,124.2c0,2.2-1.8,4-4,4c-2.2,0-4-1.8-4-4c0-2.2,1.8-4,4-4C39.9,120.3,41.7,122.1,41.7,124.2"/>
		<path class="st1" d="M53.8,124.2c0,2.2-1.8,4-4,4c-2.2,0-4-1.8-4-4c0-2.2,1.8-4,4-4C52,120.3,53.8,122.1,53.8,124.2"/>
		<path class="st1" d="M65.9,124.2c0,2.2-1.8,4-4,4c-2.2,0-4-1.8-4-4c0-2.2,1.8-4,4-4C64.1,120.3,65.9,122.1,65.9,124.2"/>
		<path class="st1" d="M77.9,124.2c0,2.2-1.8,4-4,4c-2.2,0-4-1.8-4-4c0-2.2,1.8-4,4-4C76.2,120.3,77.9,122.1,77.9,124.2"/>
		<path class="st1" d="M90,124.2c0,2.2-1.8,4-4,4c-2.2,0-4-1.8-4-4c0-2.2,1.8-4,4-4C88.2,120.3,90,122.1,90,124.2"/>
		<path class="st1" d="M102.1,124.2c0,2.2-1.8,4-4,4c-2.2,0-4-1.8-4-4c0-2.2,1.8-4,4-4C100.3,120.3,102.1,122.1,102.1,124.2"/>
		<path class="st1" d="M114.2,124.2c0,2.2-1.8,4-4,4c-2.2,0-4-1.8-4-4c0-2.2,1.8-4,4-4C112.4,120.3,114.2,122.1,114.2,124.2"/>
	</g>
</g>
<g id="Layer_2">
	<g>
		<defs>
			<path id="SVGID_3_" d="M79.5,5.9v61.8c0,9.7-8.1,17.6-18,17.6s-18-7.9-18-17.6V5.9H12.3v61.8c0,26.7,22.1,48.5,49.2,48.5
				c27.2,0,49.4-21.7,49.4-48.5V5.9H79.5z"/>
		</defs>
		<clipPath id="SVGID_4_">
			<use xlink:href="#SVGID_3_"  style="overflow:visible;"/>
		</clipPath>
		<path class="st2" d="M17.7-2.1c0,2.2-1.8,4-3.9,4s-3.9-1.8-3.9-4c0-2.2,1.8-4,3.9-4S17.7-4.3,17.7-2.1"/>
		<path class="st2" d="M29.7-2.1c0,2.2-1.8,4-3.9,4c-2.2,0-3.9-1.8-3.9-4c0-2.2,1.8-4,3.9-4C28-6.1,29.7-4.3,29.7-2.1"/>
		<path class="st2" d="M41.8-2.1c0,2.2-1.8,4-3.9,4c-2.2,0-3.9-1.8-3.9-4c0-2.2,1.8-4,3.9-4C40-6.1,41.8-4.3,41.8-2.1"/>
		<path class="st2" d="M53.8-2.1c0,2.2-1.8,4-3.9,4s-3.9-1.8-3.9-4c0-2.2,1.8-4,3.9-4S53.8-4.3,53.8-2.1"/>
		<path class="st2" d="M65.8-2.1c0,2.2-1.8,4-3.9,4c-2.2,0-3.9-1.8-3.9-4c0-2.2,1.8-4,3.9-4C64-6.1,65.8-4.3,65.8-2.1"/>
		<path class="st2" d="M77.8-2.1c0,2.2-1.8,4-3.9,4c-2.2,0-3.9-1.8-3.9-4c0-2.2,1.8-4,3.9-4C76.1-6.1,77.8-4.3,77.8-2.1"/>
		<path class="st2" d="M89.9-2.1c0,2.2-1.8,4-3.9,4S82,0.1,82-2.1c0-2.2,1.8-4,3.9-4S89.9-4.3,89.9-2.1"/>
		<path class="st2" d="M101.9-2.1c0,2.2-1.8,4-3.9,4S94,0.1,94-2.1c0-2.2,1.8-4,3.9-4S101.9-4.3,101.9-2.1"/>
		<path class="st2" d="M113.9-2.1c0,2.2-1.8,4-3.9,4c-2.2,0-3.9-1.8-3.9-4c0-2.2,1.8-4,3.9-4C112.1-6.1,113.9-4.3,113.9-2.1"/>
		<path class="st2" d="M125.9-2.1c0,2.2-1.8,4-3.9,4c-2.2,0-3.9-1.8-3.9-4c0-2.2,1.8-4,3.9-4C124.2-6.1,125.9-4.3,125.9-2.1"/>
		<path class="st2" d="M17.7,8.4c0,2.2-1.8,4-3.9,4s-3.9-1.8-3.9-4s1.8-4,3.9-4S17.7,6.2,17.7,8.4"/>
		<path class="st2" d="M29.7,8.4c0,2.2-1.8,4-3.9,4c-2.2,0-3.9-1.8-3.9-4s1.8-4,3.9-4C28,4.4,29.7,6.2,29.7,8.4"/>
		<path class="st2" d="M41.8,8.4c0,2.2-1.8,4-3.9,4c-2.2,0-3.9-1.8-3.9-4s1.8-4,3.9-4C40,4.4,41.8,6.2,41.8,8.4"/>
		<path class="st2" d="M53.8,8.4c0,2.2-1.8,4-3.9,4s-3.9-1.8-3.9-4s1.8-4,3.9-4S53.8,6.2,53.8,8.4"/>
		<path class="st2" d="M65.8,8.4c0,2.2-1.8,4-3.9,4c-2.2,0-3.9-1.8-3.9-4s1.8-4,3.9-4C64,4.4,65.8,6.2,65.8,8.4"/>
		<path class="st2" d="M77.8,8.4c0,2.2-1.8,4-3.9,4c-2.2,0-3.9-1.8-3.9-4s1.8-4,3.9-4C76.1,4.4,77.8,6.2,77.8,8.4"/>
		<path class="st2" d="M89.9,8.4c0,2.2-1.8,4-3.9,4s-3.9-1.8-3.9-4s1.8-4,3.9-4S89.9,6.2,89.9,8.4"/>
		<path class="st2" d="M101.9,8.4c0,2.2-1.8,4-3.9,4s-3.9-1.8-3.9-4s1.8-4,3.9-4S101.9,6.2,101.9,8.4"/>
		<path class="st2" d="M113.9,8.4c0,2.2-1.8,4-3.9,4c-2.2,0-3.9-1.8-3.9-4s1.8-4,3.9-4C112.1,4.4,113.9,6.2,113.9,8.4"/>
		<path class="st2" d="M125.9,8.4c0,2.2-1.8,4-3.9,4c-2.2,0-3.9-1.8-3.9-4s1.8-4,3.9-4C124.2,4.4,125.9,6.2,125.9,8.4"/>
		<path class="st2" d="M17.7,18.9c0,2.2-1.8,4-3.9,4s-3.9-1.8-3.9-4c0-2.2,1.8-4,3.9-4S17.7,16.7,17.7,18.9"/>
		<path class="st2" d="M29.7,18.9c0,2.2-1.8,4-3.9,4c-2.2,0-3.9-1.8-3.9-4c0-2.2,1.8-4,3.9-4C28,15,29.7,16.7,29.7,18.9"/>
		<path class="st2" d="M41.8,18.9c0,2.2-1.8,4-3.9,4c-2.2,0-3.9-1.8-3.9-4c0-2.2,1.8-4,3.9-4C40,15,41.8,16.7,41.8,18.9"/>
		<path class="st2" d="M53.8,18.9c0,2.2-1.8,4-3.9,4s-3.9-1.8-3.9-4c0-2.2,1.8-4,3.9-4S53.8,16.7,53.8,18.9"/>
		<path class="st2" d="M65.8,18.9c0,2.2-1.8,4-3.9,4c-2.2,0-3.9-1.8-3.9-4c0-2.2,1.8-4,3.9-4C64,15,65.8,16.7,65.8,18.9"/>
		<path class="st2" d="M77.8,18.9c0,2.2-1.8,4-3.9,4c-2.2,0-3.9-1.8-3.9-4c0-2.2,1.8-4,3.9-4C76.1,15,77.8,16.7,77.8,18.9"/>
		<path class="st2" d="M89.9,18.9c0,2.2-1.8,4-3.9,4s-3.9-1.8-3.9-4c0-2.2,1.8-4,3.9-4S89.9,16.7,89.9,18.9"/>
		<path class="st2" d="M101.9,18.9c0,2.2-1.8,4-3.9,4s-3.9-1.8-3.9-4c0-2.2,1.8-4,3.9-4S101.9,16.7,101.9,18.9"/>
		<path class="st2" d="M113.9,18.9c0,2.2-1.8,4-3.9,4c-2.2,0-3.9-1.8-3.9-4c0-2.2,1.8-4,3.9-4C112.1,15,113.9,16.7,113.9,18.9"/>
		<path class="st2" d="M125.9,18.9c0,2.2-1.8,4-3.9,4c-2.2,0-3.9-1.8-3.9-4c0-2.2,1.8-4,3.9-4C124.2,15,125.9,16.7,125.9,18.9"/>
		<path class="st2" d="M17.7,29.5c0,2.2-1.8,4-3.9,4s-3.9-1.8-3.9-4c0-2.2,1.8-4,3.9-4S17.7,27.3,17.7,29.5"/>
		<path class="st2" d="M29.7,29.5c0,2.2-1.8,4-3.9,4c-2.2,0-3.9-1.8-3.9-4c0-2.2,1.8-4,3.9-4C28,25.5,29.7,27.3,29.7,29.5"/>
		<path class="st2" d="M41.8,29.5c0,2.2-1.8,4-3.9,4c-2.2,0-3.9-1.8-3.9-4c0-2.2,1.8-4,3.9-4C40,25.5,41.8,27.3,41.8,29.5"/>
		<path class="st2" d="M53.8,29.5c0,2.2-1.8,4-3.9,4s-3.9-1.8-3.9-4c0-2.2,1.8-4,3.9-4S53.8,27.3,53.8,29.5"/>
		<path class="st2" d="M65.8,29.5c0,2.2-1.8,4-3.9,4c-2.2,0-3.9-1.8-3.9-4c0-2.2,1.8-4,3.9-4C64,25.5,65.8,27.3,65.8,29.5"/>
		<path class="st2" d="M77.8,29.5c0,2.2-1.8,4-3.9,4c-2.2,0-3.9-1.8-3.9-4c0-2.2,1.8-4,3.9-4C76.1,25.5,77.8,27.3,77.8,29.5"/>
		<path class="st2" d="M89.9,29.5c0,2.2-1.8,4-3.9,4s-3.9-1.8-3.9-4c0-2.2,1.8-4,3.9-4S89.9,27.3,89.9,29.5"/>
		<path class="st2" d="M101.9,29.5c0,2.2-1.8,4-3.9,4s-3.9-1.8-3.9-4c0-2.2,1.8-4,3.9-4S101.9,27.3,101.9,29.5"/>
		<path class="st2" d="M113.9,29.5c0,2.2-1.8,4-3.9,4c-2.2,0-3.9-1.8-3.9-4c0-2.2,1.8-4,3.9-4C112.1,25.5,113.9,27.3,113.9,29.5"/>
		<path class="st2" d="M125.9,29.5c0,2.2-1.8,4-3.9,4c-2.2,0-3.9-1.8-3.9-4c0-2.2,1.8-4,3.9-4C124.2,25.5,125.9,27.3,125.9,29.5"/>
		<path class="st2" d="M17.7,40c0,2.2-1.8,4-3.9,4s-3.9-1.8-3.9-4c0-2.2,1.8-4,3.9-4S17.7,37.8,17.7,40"/>
		<path class="st2" d="M29.7,40c0,2.2-1.8,4-3.9,4c-2.2,0-3.9-1.8-3.9-4c0-2.2,1.8-4,3.9-4C28,36,29.7,37.8,29.7,40"/>
		<path class="st2" d="M41.8,40c0,2.2-1.8,4-3.9,4c-2.2,0-3.9-1.8-3.9-4c0-2.2,1.8-4,3.9-4C40,36,41.8,37.8,41.8,40"/>
		<path class="st2" d="M53.8,40c0,2.2-1.8,4-3.9,4s-3.9-1.8-3.9-4c0-2.2,1.8-4,3.9-4S53.8,37.8,53.8,40"/>
		<path class="st2" d="M65.8,40c0,2.2-1.8,4-3.9,4c-2.2,0-3.9-1.8-3.9-4c0-2.2,1.8-4,3.9-4C64,36,65.8,37.8,65.8,40"/>
		<path class="st2" d="M77.8,40c0,2.2-1.8,4-3.9,4c-2.2,0-3.9-1.8-3.9-4c0-2.2,1.8-4,3.9-4C76.1,36,77.8,37.8,77.8,40"/>
		<path class="st2" d="M89.9,40c0,2.2-1.8,4-3.9,4S82,42.2,82,40c0-2.2,1.8-4,3.9-4S89.9,37.8,89.9,40"/>
		<path class="st2" d="M101.9,40c0,2.2-1.8,4-3.9,4S94,42.2,94,40c0-2.2,1.8-4,3.9-4S101.9,37.8,101.9,40"/>
		<path class="st2" d="M113.9,40c0,2.2-1.8,4-3.9,4c-2.2,0-3.9-1.8-3.9-4c0-2.2,1.8-4,3.9-4C112.1,36,113.9,37.8,113.9,40"/>
		<path class="st2" d="M125.9,40c0,2.2-1.8,4-3.9,4c-2.2,0-3.9-1.8-3.9-4c0-2.2,1.8-4,3.9-4C124.2,36,125.9,37.8,125.9,40"/>
		<path class="st2" d="M17.7,50.5c0,2.2-1.8,4-3.9,4s-3.9-1.8-3.9-4c0-2.2,1.8-4,3.9-4S17.7,48.3,17.7,50.5"/>
		<path class="st2" d="M29.7,50.5c0,2.2-1.8,4-3.9,4c-2.2,0-3.9-1.8-3.9-4c0-2.2,1.8-4,3.9-4C28,46.6,29.7,48.3,29.7,50.5"/>
		<path class="st2" d="M41.8,50.5c0,2.2-1.8,4-3.9,4c-2.2,0-3.9-1.8-3.9-4c0-2.2,1.8-4,3.9-4C40,46.6,41.8,48.3,41.8,50.5"/>
		<path class="st2" d="M53.8,50.5c0,2.2-1.8,4-3.9,4s-3.9-1.8-3.9-4c0-2.2,1.8-4,3.9-4S53.8,48.3,53.8,50.5"/>
		<path class="st2" d="M65.8,50.5c0,2.2-1.8,4-3.9,4c-2.2,0-3.9-1.8-3.9-4c0-2.2,1.8-4,3.9-4C64,46.6,65.8,48.3,65.8,50.5"/>
		<path class="st2" d="M77.8,50.5c0,2.2-1.8,4-3.9,4c-2.2,0-3.9-1.8-3.9-4c0-2.2,1.8-4,3.9-4C76.1,46.6,77.8,48.3,77.8,50.5"/>
		<path class="st2" d="M89.9,50.5c0,2.2-1.8,4-3.9,4s-3.9-1.8-3.9-4c0-2.2,1.8-4,3.9-4S89.9,48.3,89.9,50.5"/>
		<path class="st2" d="M101.9,50.5c0,2.2-1.8,4-3.9,4s-3.9-1.8-3.9-4c0-2.2,1.8-4,3.9-4S101.9,48.3,101.9,50.5"/>
		<path class="st2" d="M113.9,50.5c0,2.2-1.8,4-3.9,4c-2.2,0-3.9-1.8-3.9-4c0-2.2,1.8-4,3.9-4C112.1,46.6,113.9,48.3,113.9,50.5"/>
		<path class="st2" d="M125.9,50.5c0,2.2-1.8,4-3.9,4c-2.2,0-3.9-1.8-3.9-4c0-2.2,1.8-4,3.9-4C124.2,46.6,125.9,48.3,125.9,50.5"/>
		<path class="st2" d="M17.7,61c0,2.2-1.8,4-3.9,4s-3.9-1.8-3.9-4c0-2.2,1.8-4,3.9-4S17.7,58.9,17.7,61"/>
		<path class="st2" d="M29.7,61c0,2.2-1.8,4-3.9,4c-2.2,0-3.9-1.8-3.9-4c0-2.2,1.8-4,3.9-4C28,57.1,29.7,58.9,29.7,61"/>
		<path class="st2" d="M41.8,61c0,2.2-1.8,4-3.9,4c-2.2,0-3.9-1.8-3.9-4c0-2.2,1.8-4,3.9-4C40,57.1,41.8,58.9,41.8,61"/>
		<path class="st2" d="M53.8,61c0,2.2-1.8,4-3.9,4s-3.9-1.8-3.9-4c0-2.2,1.8-4,3.9-4S53.8,58.9,53.8,61"/>
		<path class="st2" d="M65.8,61c0,2.2-1.8,4-3.9,4c-2.2,0-3.9-1.8-3.9-4c0-2.2,1.8-4,3.9-4C64,57.1,65.8,58.9,65.8,61"/>
		<path class="st2" d="M77.8,61c0,2.2-1.8,4-3.9,4c-2.2,0-3.9-1.8-3.9-4c0-2.2,1.8-4,3.9-4C76.1,57.1,77.8,58.9,77.8,61"/>
		<path class="st2" d="M89.9,61c0,2.2-1.8,4-3.9,4S82,63.2,82,61c0-2.2,1.8-4,3.9-4S89.9,58.9,89.9,61"/>
		<path class="st2" d="M101.9,61c0,2.2-1.8,4-3.9,4S94,63.2,94,61c0-2.2,1.8-4,3.9-4S101.9,58.9,101.9,61"/>
		<path class="st2" d="M113.9,61c0,2.2-1.8,4-3.9,4c-2.2,0-3.9-1.8-3.9-4c0-2.2,1.8-4,3.9-4C112.1,57.1,113.9,58.9,113.9,61"/>
		<path class="st2" d="M125.9,61c0,2.2-1.8,4-3.9,4c-2.2,0-3.9-1.8-3.9-4c0-2.2,1.8-4,3.9-4C124.2,57.1,125.9,58.9,125.9,61"/>
		<path class="st2" d="M17.7,71.6c0,2.2-1.8,4-3.9,4s-3.9-1.8-3.9-4c0-2.2,1.8-4,3.9-4S17.7,69.4,17.7,71.6"/>
		<path class="st2" d="M29.7,71.6c0,2.2-1.8,4-3.9,4c-2.2,0-3.9-1.8-3.9-4c0-2.2,1.8-4,3.9-4C28,67.6,29.7,69.4,29.7,71.6"/>
		<path class="st2" d="M41.8,71.6c0,2.2-1.8,4-3.9,4c-2.2,0-3.9-1.8-3.9-4c0-2.2,1.8-4,3.9-4C40,67.6,41.8,69.4,41.8,71.6"/>
		<path class="st2" d="M53.8,71.6c0,2.2-1.8,4-3.9,4s-3.9-1.8-3.9-4c0-2.2,1.8-4,3.9-4S53.8,69.4,53.8,71.6"/>
		<path class="st2" d="M65.8,71.6c0,2.2-1.8,4-3.9,4c-2.2,0-3.9-1.8-3.9-4c0-2.2,1.8-4,3.9-4C64,67.6,65.8,69.4,65.8,71.6"/>
		<path class="st2" d="M77.8,71.6c0,2.2-1.8,4-3.9,4c-2.2,0-3.9-1.8-3.9-4c0-2.2,1.8-4,3.9-4C76.1,67.6,77.8,69.4,77.8,71.6"/>
		<path class="st2" d="M89.9,71.6c0,2.2-1.8,4-3.9,4s-3.9-1.8-3.9-4c0-2.2,1.8-4,3.9-4S89.9,69.4,89.9,71.6"/>
		<path class="st2" d="M101.9,71.6c0,2.2-1.8,4-3.9,4s-3.9-1.8-3.9-4c0-2.2,1.8-4,3.9-4S101.9,69.4,101.9,71.6"/>
		<path class="st2" d="M113.9,71.6c0,2.2-1.8,4-3.9,4c-2.2,0-3.9-1.8-3.9-4c0-2.2,1.8-4,3.9-4C112.1,67.6,113.9,69.4,113.9,71.6"/>
		<path class="st2" d="M125.9,71.6c0,2.2-1.8,4-3.9,4c-2.2,0-3.9-1.8-3.9-4c0-2.2,1.8-4,3.9-4C124.2,67.6,125.9,69.4,125.9,71.6"/>
		<path class="st2" d="M17.7,82.1c0,2.2-1.8,4-3.9,4s-3.9-1.8-3.9-4c0-2.2,1.8-4,3.9-4S17.7,79.9,17.7,82.1"/>
		<path class="st2" d="M29.7,82.1c0,2.2-1.8,4-3.9,4c-2.2,0-3.9-1.8-3.9-4c0-2.2,1.8-4,3.9-4C28,78.1,29.7,79.9,29.7,82.1"/>
		<path class="st2" d="M41.8,82.1c0,2.2-1.8,4-3.9,4c-2.2,0-3.9-1.8-3.9-4c0-2.2,1.8-4,3.9-4C40,78.1,41.8,79.9,41.8,82.1"/>
		<path class="st2" d="M53.8,82.1c0,2.2-1.8,4-3.9,4s-3.9-1.8-3.9-4c0-2.2,1.8-4,3.9-4S53.8,79.9,53.8,82.1"/>
		<path class="st2" d="M65.8,82.1c0,2.2-1.8,4-3.9,4c-2.2,0-3.9-1.8-3.9-4c0-2.2,1.8-4,3.9-4C64,78.1,65.8,79.9,65.8,82.1"/>
		<path class="st2" d="M77.8,82.1c0,2.2-1.8,4-3.9,4c-2.2,0-3.9-1.8-3.9-4c0-2.2,1.8-4,3.9-4C76.1,78.1,77.8,79.9,77.8,82.1"/>
		<path class="st2" d="M89.9,82.1c0,2.2-1.8,4-3.9,4s-3.9-1.8-3.9-4c0-2.2,1.8-4,3.9-4S89.9,79.9,89.9,82.1"/>
		<path class="st2" d="M101.9,82.1c0,2.2-1.8,4-3.9,4s-3.9-1.8-3.9-4c0-2.2,1.8-4,3.9-4S101.9,79.9,101.9,82.1"/>
		<path class="st2" d="M113.9,82.1c0,2.2-1.8,4-3.9,4c-2.2,0-3.9-1.8-3.9-4c0-2.2,1.8-4,3.9-4C112.1,78.1,113.9,79.9,113.9,82.1"/>
		<path class="st2" d="M125.9,82.1c0,2.2-1.8,4-3.9,4c-2.2,0-3.9-1.8-3.9-4c0-2.2,1.8-4,3.9-4C124.2,78.1,125.9,79.9,125.9,82.1"/>
		<path class="st2" d="M17.7,92.6c0,2.2-1.8,4-3.9,4s-3.9-1.8-3.9-4c0-2.2,1.8-4,3.9-4S17.7,90.4,17.7,92.6"/>
		<path class="st2" d="M29.7,92.6c0,2.2-1.8,4-3.9,4c-2.2,0-3.9-1.8-3.9-4c0-2.2,1.8-4,3.9-4C28,88.7,29.7,90.4,29.7,92.6"/>
		<path class="st2" d="M41.8,92.6c0,2.2-1.8,4-3.9,4c-2.2,0-3.9-1.8-3.9-4c0-2.2,1.8-4,3.9-4C40,88.7,41.8,90.4,41.8,92.6"/>
		<path class="st2" d="M53.8,92.6c0,2.2-1.8,4-3.9,4s-3.9-1.8-3.9-4c0-2.2,1.8-4,3.9-4S53.8,90.4,53.8,92.6"/>
		<path class="st2" d="M65.8,92.6c0,2.2-1.8,4-3.9,4c-2.2,0-3.9-1.8-3.9-4c0-2.2,1.8-4,3.9-4C64,88.7,65.8,90.4,65.8,92.6"/>
		<path class="st2" d="M77.8,92.6c0,2.2-1.8,4-3.9,4c-2.2,0-3.9-1.8-3.9-4c0-2.2,1.8-4,3.9-4C76.1,88.7,77.8,90.4,77.8,92.6"/>
		<path class="st2" d="M89.9,92.6c0,2.2-1.8,4-3.9,4s-3.9-1.8-3.9-4c0-2.2,1.8-4,3.9-4S89.9,90.4,89.9,92.6"/>
		<path class="st2" d="M101.9,92.6c0,2.2-1.8,4-3.9,4s-3.9-1.8-3.9-4c0-2.2,1.8-4,3.9-4S101.9,90.4,101.9,92.6"/>
		<path class="st2" d="M113.9,92.6c0,2.2-1.8,4-3.9,4c-2.2,0-3.9-1.8-3.9-4c0-2.2,1.8-4,3.9-4C112.1,88.7,113.9,90.4,113.9,92.6"/>
		<path class="st2" d="M125.9,92.6c0,2.2-1.8,4-3.9,4c-2.2,0-3.9-1.8-3.9-4c0-2.2,1.8-4,3.9-4C124.2,88.7,125.9,90.4,125.9,92.6"/>
		<path class="st2" d="M17.7,103.2c0,2.2-1.8,4-3.9,4s-3.9-1.8-3.9-4c0-2.2,1.8-4,3.9-4S17.7,101,17.7,103.2"/>
		<path class="st2" d="M29.7,103.2c0,2.2-1.8,4-3.9,4c-2.2,0-3.9-1.8-3.9-4c0-2.2,1.8-4,3.9-4C28,99.2,29.7,101,29.7,103.2"/>
		<path class="st2" d="M41.8,103.2c0,2.2-1.8,4-3.9,4c-2.2,0-3.9-1.8-3.9-4c0-2.2,1.8-4,3.9-4C40,99.2,41.8,101,41.8,103.2"/>
		<path class="st2" d="M53.8,103.2c0,2.2-1.8,4-3.9,4s-3.9-1.8-3.9-4c0-2.2,1.8-4,3.9-4S53.8,101,53.8,103.2"/>
		<path class="st2" d="M65.8,103.2c0,2.2-1.8,4-3.9,4c-2.2,0-3.9-1.8-3.9-4c0-2.2,1.8-4,3.9-4C64,99.2,65.8,101,65.8,103.2"/>
		<path class="st2" d="M77.8,103.2c0,2.2-1.8,4-3.9,4c-2.2,0-3.9-1.8-3.9-4c0-2.2,1.8-4,3.9-4C76.1,99.2,77.8,101,77.8,103.2"/>
		<path class="st2" d="M89.9,103.2c0,2.2-1.8,4-3.9,4s-3.9-1.8-3.9-4c0-2.2,1.8-4,3.9-4S89.9,101,89.9,103.2"/>
		<path class="st2" d="M101.9,103.2c0,2.2-1.8,4-3.9,4s-3.9-1.8-3.9-4c0-2.2,1.8-4,3.9-4S101.9,101,101.9,103.2"/>
		<path class="st2" d="M113.9,103.2c0,2.2-1.8,4-3.9,4c-2.2,0-3.9-1.8-3.9-4c0-2.2,1.8-4,3.9-4C112.1,99.2,113.9,101,113.9,103.2"/>
		<path class="st2" d="M125.9,103.2c0,2.2-1.8,4-3.9,4c-2.2,0-3.9-1.8-3.9-4c0-2.2,1.8-4,3.9-4C124.2,99.2,125.9,101,125.9,103.2"/>
		<path class="st2" d="M17.7,113.7c0,2.2-1.8,4-3.9,4s-3.9-1.8-3.9-4c0-2.2,1.8-4,3.9-4S17.7,111.5,17.7,113.7"/>
		<path class="st2" d="M29.7,113.7c0,2.2-1.8,4-3.9,4c-2.2,0-3.9-1.8-3.9-4c0-2.2,1.8-4,3.9-4C28,109.7,29.7,111.5,29.7,113.7"/>
		<path class="st2" d="M41.8,113.7c0,2.2-1.8,4-3.9,4c-2.2,0-3.9-1.8-3.9-4c0-2.2,1.8-4,3.9-4C40,109.7,41.8,111.5,41.8,113.7"/>
		<path class="st2" d="M53.8,113.7c0,2.2-1.8,4-3.9,4s-3.9-1.8-3.9-4c0-2.2,1.8-4,3.9-4S53.8,111.5,53.8,113.7"/>
		<path class="st2" d="M65.8,113.7c0,2.2-1.8,4-3.9,4c-2.2,0-3.9-1.8-3.9-4c0-2.2,1.8-4,3.9-4C64,109.7,65.8,111.5,65.8,113.7"/>
		<path class="st2" d="M77.8,113.7c0,2.2-1.8,4-3.9,4c-2.2,0-3.9-1.8-3.9-4c0-2.2,1.8-4,3.9-4C76.1,109.7,77.8,111.5,77.8,113.7"/>
		<path class="st2" d="M89.9,113.7c0,2.2-1.8,4-3.9,4s-3.9-1.8-3.9-4c0-2.2,1.8-4,3.9-4S89.9,111.5,89.9,113.7"/>
		<path class="st2" d="M101.9,113.7c0,2.2-1.8,4-3.9,4s-3.9-1.8-3.9-4c0-2.2,1.8-4,3.9-4S101.9,111.5,101.9,113.7"/>
		<path class="st2" d="M113.9,113.7c0,2.2-1.8,4-3.9,4c-2.2,0-3.9-1.8-3.9-4c0-2.2,1.8-4,3.9-4C112.1,109.7,113.9,111.5,113.9,113.7
			"/>
		<path class="st2" d="M125.9,113.7c0,2.2-1.8,4-3.9,4c-2.2,0-3.9-1.8-3.9-4c0-2.2,1.8-4,3.9-4C124.2,109.7,125.9,111.5,125.9,113.7
			"/>
		<path class="st2" d="M17.7,124.2c0,2.2-1.8,4-3.9,4s-3.9-1.8-3.9-4c0-2.2,1.8-4,3.9-4S17.7,122,17.7,124.2"/>
		<path class="st2" d="M29.7,124.2c0,2.2-1.8,4-3.9,4c-2.2,0-3.9-1.8-3.9-4c0-2.2,1.8-4,3.9-4C28,120.3,29.7,122,29.7,124.2"/>
		<path class="st2" d="M41.8,124.2c0,2.2-1.8,4-3.9,4c-2.2,0-3.9-1.8-3.9-4c0-2.2,1.8-4,3.9-4C40,120.3,41.8,122,41.8,124.2"/>
		<path class="st2" d="M53.8,124.2c0,2.2-1.8,4-3.9,4s-3.9-1.8-3.9-4c0-2.2,1.8-4,3.9-4S53.8,122,53.8,124.2"/>
		<path class="st2" d="M65.8,124.2c0,2.2-1.8,4-3.9,4c-2.2,0-3.9-1.8-3.9-4c0-2.2,1.8-4,3.9-4C64,120.3,65.8,122,65.8,124.2"/>
		<path class="st2" d="M77.8,124.2c0,2.2-1.8,4-3.9,4c-2.2,0-3.9-1.8-3.9-4c0-2.2,1.8-4,3.9-4C76.1,120.3,77.8,122,77.8,124.2"/>
		<path class="st2" d="M89.9,124.2c0,2.2-1.8,4-3.9,4s-3.9-1.8-3.9-4c0-2.2,1.8-4,3.9-4S89.9,122,89.9,124.2"/>
		<path class="st2" d="M101.9,124.2c0,2.2-1.8,4-3.9,4s-3.9-1.8-3.9-4c0-2.2,1.8-4,3.9-4S101.9,122,101.9,124.2"/>
		<path class="st2" d="M113.9,124.2c0,2.2-1.8,4-3.9,4c-2.2,0-3.9-1.8-3.9-4c0-2.2,1.8-4,3.9-4C112.1,120.3,113.9,122,113.9,124.2"
			/>
		<path class="st2" d="M125.9,124.2c0,2.2-1.8,4-3.9,4c-2.2,0-3.9-1.8-3.9-4c0-2.2,1.8-4,3.9-4C124.2,120.3,125.9,122,125.9,124.2"
			/>
	</g>
	<path class="st3" d="M79.5,5.9v61.8c0,9.7-8.1,17.6-18,17.6s-18-7.9-18-17.6V5.9H12.3v61.8c0,26.8,22.1,48.5,49.2,48.5
		c27.2,0,49.4-21.8,49.4-48.5V5.9H79.5z"/>
</g>
<g id="Layer_3">
	<g>
		<defs>
			<path id="SVGID_5_" d="M79.5,5.9v61.8c0,9.7-8.1,17.6-18,17.6s-18-7.9-18-17.6V5.9H12.3v61.8c0,26.7,22.1,48.5,49.2,48.5
				c27.2,0,49.4-21.7,49.4-48.5V5.9H79.5z"/>
		</defs>
		<clipPath id="SVGID_6_">
			<use xlink:href="#SVGID_5_"  style="overflow:visible;"/>
		</clipPath>
		<path class="st4" d="M17.7-2.1c0,2.2-1.8,4-3.9,4s-3.9-1.8-3.9-4c0-2.2,1.8-4,3.9-4S17.7-4.3,17.7-2.1"/>
		<path class="st4" d="M29.7-2.1c0,2.2-1.8,4-3.9,4c-2.2,0-3.9-1.8-3.9-4c0-2.2,1.8-4,3.9-4C28-6.1,29.7-4.3,29.7-2.1"/>
		<path class="st4" d="M41.8-2.1c0,2.2-1.8,4-3.9,4c-2.2,0-3.9-1.8-3.9-4c0-2.2,1.8-4,3.9-4C40-6.1,41.8-4.3,41.8-2.1"/>
		<path class="st4" d="M53.8-2.1c0,2.2-1.8,4-3.9,4s-3.9-1.8-3.9-4c0-2.2,1.8-4,3.9-4S53.8-4.3,53.8-2.1"/>
		<path class="st4" d="M65.8-2.1c0,2.2-1.8,4-3.9,4c-2.2,0-3.9-1.8-3.9-4c0-2.2,1.8-4,3.9-4C64-6.1,65.8-4.3,65.8-2.1"/>
		<path class="st4" d="M77.8-2.1c0,2.2-1.8,4-3.9,4c-2.2,0-3.9-1.8-3.9-4c0-2.2,1.8-4,3.9-4C76.1-6.1,77.8-4.3,77.8-2.1"/>
		<path class="st4" d="M89.9-2.1c0,2.2-1.8,4-3.9,4S82,0.1,82-2.1c0-2.2,1.8-4,3.9-4S89.9-4.3,89.9-2.1"/>
		<path class="st4" d="M101.9-2.1c0,2.2-1.8,4-3.9,4S94,0.1,94-2.1c0-2.2,1.8-4,3.9-4S101.9-4.3,101.9-2.1"/>
		<path class="st4" d="M113.9-2.1c0,2.2-1.8,4-3.9,4c-2.2,0-3.9-1.8-3.9-4c0-2.2,1.8-4,3.9-4C112.1-6.1,113.9-4.3,113.9-2.1"/>
		<path class="st4" d="M125.9-2.1c0,2.2-1.8,4-3.9,4c-2.2,0-3.9-1.8-3.9-4c0-2.2,1.8-4,3.9-4C124.2-6.1,125.9-4.3,125.9-2.1"/>
		<path class="st4" d="M17.7,8.4c0,2.2-1.8,4-3.9,4s-3.9-1.8-3.9-4s1.8-4,3.9-4S17.7,6.2,17.7,8.4"/>
		<path class="st4" d="M29.7,8.4c0,2.2-1.8,4-3.9,4c-2.2,0-3.9-1.8-3.9-4s1.8-4,3.9-4C28,4.4,29.7,6.2,29.7,8.4"/>
		<path class="st4" d="M41.8,8.4c0,2.2-1.8,4-3.9,4c-2.2,0-3.9-1.8-3.9-4s1.8-4,3.9-4C40,4.4,41.8,6.2,41.8,8.4"/>
		<path class="st4" d="M53.8,8.4c0,2.2-1.8,4-3.9,4s-3.9-1.8-3.9-4s1.8-4,3.9-4S53.8,6.2,53.8,8.4"/>
		<path class="st4" d="M65.8,8.4c0,2.2-1.8,4-3.9,4c-2.2,0-3.9-1.8-3.9-4s1.8-4,3.9-4C64,4.4,65.8,6.2,65.8,8.4"/>
		<path class="st4" d="M77.8,8.4c0,2.2-1.8,4-3.9,4c-2.2,0-3.9-1.8-3.9-4s1.8-4,3.9-4C76.1,4.4,77.8,6.2,77.8,8.4"/>
		<path class="st4" d="M89.9,8.4c0,2.2-1.8,4-3.9,4s-3.9-1.8-3.9-4s1.8-4,3.9-4S89.9,6.2,89.9,8.4"/>
		<path class="st4" d="M101.9,8.4c0,2.2-1.8,4-3.9,4s-3.9-1.8-3.9-4s1.8-4,3.9-4S101.9,6.2,101.9,8.4"/>
		<path class="st4" d="M113.9,8.4c0,2.2-1.8,4-3.9,4c-2.2,0-3.9-1.8-3.9-4s1.8-4,3.9-4C112.1,4.4,113.9,6.2,113.9,8.4"/>
		<path class="st4" d="M125.9,8.4c0,2.2-1.8,4-3.9,4c-2.2,0-3.9-1.8-3.9-4s1.8-4,3.9-4C124.2,4.4,125.9,6.2,125.9,8.4"/>
		<path class="st4" d="M17.7,18.9c0,2.2-1.8,4-3.9,4s-3.9-1.8-3.9-4c0-2.2,1.8-4,3.9-4S17.7,16.7,17.7,18.9"/>
		<path class="st4" d="M29.7,18.9c0,2.2-1.8,4-3.9,4c-2.2,0-3.9-1.8-3.9-4c0-2.2,1.8-4,3.9-4C28,15,29.7,16.7,29.7,18.9"/>
		<path class="st4" d="M41.8,18.9c0,2.2-1.8,4-3.9,4c-2.2,0-3.9-1.8-3.9-4c0-2.2,1.8-4,3.9-4C40,15,41.8,16.7,41.8,18.9"/>
		<path class="st4" d="M53.8,18.9c0,2.2-1.8,4-3.9,4s-3.9-1.8-3.9-4c0-2.2,1.8-4,3.9-4S53.8,16.7,53.8,18.9"/>
		<path class="st4" d="M65.8,18.9c0,2.2-1.8,4-3.9,4c-2.2,0-3.9-1.8-3.9-4c0-2.2,1.8-4,3.9-4C64,15,65.8,16.7,65.8,18.9"/>
		<path class="st4" d="M77.8,18.9c0,2.2-1.8,4-3.9,4c-2.2,0-3.9-1.8-3.9-4c0-2.2,1.8-4,3.9-4C76.1,15,77.8,16.7,77.8,18.9"/>
		<path class="st4" d="M89.9,18.9c0,2.2-1.8,4-3.9,4s-3.9-1.8-3.9-4c0-2.2,1.8-4,3.9-4S89.9,16.7,89.9,18.9"/>
		<path class="st4" d="M101.9,18.9c0,2.2-1.8,4-3.9,4s-3.9-1.8-3.9-4c0-2.2,1.8-4,3.9-4S101.9,16.7,101.9,18.9"/>
		<path class="st4" d="M113.9,18.9c0,2.2-1.8,4-3.9,4c-2.2,0-3.9-1.8-3.9-4c0-2.2,1.8-4,3.9-4C112.1,15,113.9,16.7,113.9,18.9"/>
		<path class="st4" d="M125.9,18.9c0,2.2-1.8,4-3.9,4c-2.2,0-3.9-1.8-3.9-4c0-2.2,1.8-4,3.9-4C124.2,15,125.9,16.7,125.9,18.9"/>
		<path class="st4" d="M17.7,29.5c0,2.2-1.8,4-3.9,4s-3.9-1.8-3.9-4c0-2.2,1.8-4,3.9-4S17.7,27.3,17.7,29.5"/>
		<path class="st4" d="M29.7,29.5c0,2.2-1.8,4-3.9,4c-2.2,0-3.9-1.8-3.9-4c0-2.2,1.8-4,3.9-4C28,25.5,29.7,27.3,29.7,29.5"/>
		<path class="st4" d="M41.8,29.5c0,2.2-1.8,4-3.9,4c-2.2,0-3.9-1.8-3.9-4c0-2.2,1.8-4,3.9-4C40,25.5,41.8,27.3,41.8,29.5"/>
		<path class="st4" d="M53.8,29.5c0,2.2-1.8,4-3.9,4s-3.9-1.8-3.9-4c0-2.2,1.8-4,3.9-4S53.8,27.3,53.8,29.5"/>
		<path class="st4" d="M65.8,29.5c0,2.2-1.8,4-3.9,4c-2.2,0-3.9-1.8-3.9-4c0-2.2,1.8-4,3.9-4C64,25.5,65.8,27.3,65.8,29.5"/>
		<path class="st4" d="M77.8,29.5c0,2.2-1.8,4-3.9,4c-2.2,0-3.9-1.8-3.9-4c0-2.2,1.8-4,3.9-4C76.1,25.5,77.8,27.3,77.8,29.5"/>
		<path class="st4" d="M89.9,29.5c0,2.2-1.8,4-3.9,4s-3.9-1.8-3.9-4c0-2.2,1.8-4,3.9-4S89.9,27.3,89.9,29.5"/>
		<path class="st4" d="M101.9,29.5c0,2.2-1.8,4-3.9,4s-3.9-1.8-3.9-4c0-2.2,1.8-4,3.9-4S101.9,27.3,101.9,29.5"/>
		<path class="st4" d="M113.9,29.5c0,2.2-1.8,4-3.9,4c-2.2,0-3.9-1.8-3.9-4c0-2.2,1.8-4,3.9-4C112.1,25.5,113.9,27.3,113.9,29.5"/>
		<path class="st4" d="M125.9,29.5c0,2.2-1.8,4-3.9,4c-2.2,0-3.9-1.8-3.9-4c0-2.2,1.8-4,3.9-4C124.2,25.5,125.9,27.3,125.9,29.5"/>
		<path class="st4" d="M17.7,40c0,2.2-1.8,4-3.9,4s-3.9-1.8-3.9-4c0-2.2,1.8-4,3.9-4S17.7,37.8,17.7,40"/>
		<path class="st4" d="M29.7,40c0,2.2-1.8,4-3.9,4c-2.2,0-3.9-1.8-3.9-4c0-2.2,1.8-4,3.9-4C28,36,29.7,37.8,29.7,40"/>
		<path class="st4" d="M41.8,40c0,2.2-1.8,4-3.9,4c-2.2,0-3.9-1.8-3.9-4c0-2.2,1.8-4,3.9-4C40,36,41.8,37.8,41.8,40"/>
		<path class="st4" d="M53.8,40c0,2.2-1.8,4-3.9,4s-3.9-1.8-3.9-4c0-2.2,1.8-4,3.9-4S53.8,37.8,53.8,40"/>
		<path class="st4" d="M65.8,40c0,2.2-1.8,4-3.9,4c-2.2,0-3.9-1.8-3.9-4c0-2.2,1.8-4,3.9-4C64,36,65.8,37.8,65.8,40"/>
		<path class="st4" d="M77.8,40c0,2.2-1.8,4-3.9,4c-2.2,0-3.9-1.8-3.9-4c0-2.2,1.8-4,3.9-4C76.1,36,77.8,37.8,77.8,40"/>
		<path class="st4" d="M89.9,40c0,2.2-1.8,4-3.9,4S82,42.2,82,40c0-2.2,1.8-4,3.9-4S89.9,37.8,89.9,40"/>
		<path class="st4" d="M101.9,40c0,2.2-1.8,4-3.9,4S94,42.2,94,40c0-2.2,1.8-4,3.9-4S101.9,37.8,101.9,40"/>
		<path class="st4" d="M113.9,40c0,2.2-1.8,4-3.9,4c-2.2,0-3.9-1.8-3.9-4c0-2.2,1.8-4,3.9-4C112.1,36,113.9,37.8,113.9,40"/>
		<path class="st4" d="M125.9,40c0,2.2-1.8,4-3.9,4c-2.2,0-3.9-1.8-3.9-4c0-2.2,1.8-4,3.9-4C124.2,36,125.9,37.8,125.9,40"/>
		<path class="st4" d="M17.7,50.5c0,2.2-1.8,4-3.9,4s-3.9-1.8-3.9-4c0-2.2,1.8-4,3.9-4S17.7,48.3,17.7,50.5"/>
		<path class="st4" d="M29.7,50.5c0,2.2-1.8,4-3.9,4c-2.2,0-3.9-1.8-3.9-4c0-2.2,1.8-4,3.9-4C28,46.6,29.7,48.3,29.7,50.5"/>
		<path class="st4" d="M41.8,50.5c0,2.2-1.8,4-3.9,4c-2.2,0-3.9-1.8-3.9-4c0-2.2,1.8-4,3.9-4C40,46.6,41.8,48.3,41.8,50.5"/>
		<path class="st4" d="M53.8,50.5c0,2.2-1.8,4-3.9,4s-3.9-1.8-3.9-4c0-2.2,1.8-4,3.9-4S53.8,48.3,53.8,50.5"/>
		<path class="st4" d="M65.8,50.5c0,2.2-1.8,4-3.9,4c-2.2,0-3.9-1.8-3.9-4c0-2.2,1.8-4,3.9-4C64,46.6,65.8,48.3,65.8,50.5"/>
		<path class="st4" d="M77.8,50.5c0,2.2-1.8,4-3.9,4c-2.2,0-3.9-1.8-3.9-4c0-2.2,1.8-4,3.9-4C76.1,46.6,77.8,48.3,77.8,50.5"/>
		<path class="st4" d="M89.9,50.5c0,2.2-1.8,4-3.9,4s-3.9-1.8-3.9-4c0-2.2,1.8-4,3.9-4S89.9,48.3,89.9,50.5"/>
		<path class="st4" d="M101.9,50.5c0,2.2-1.8,4-3.9,4s-3.9-1.8-3.9-4c0-2.2,1.8-4,3.9-4S101.9,48.3,101.9,50.5"/>
		<path class="st4" d="M113.9,50.5c0,2.2-1.8,4-3.9,4c-2.2,0-3.9-1.8-3.9-4c0-2.2,1.8-4,3.9-4C112.1,46.6,113.9,48.3,113.9,50.5"/>
		<path class="st4" d="M125.9,50.5c0,2.2-1.8,4-3.9,4c-2.2,0-3.9-1.8-3.9-4c0-2.2,1.8-4,3.9-4C124.2,46.6,125.9,48.3,125.9,50.5"/>
		<path class="st4" d="M17.7,61c0,2.2-1.8,4-3.9,4s-3.9-1.8-3.9-4c0-2.2,1.8-4,3.9-4S17.7,58.9,17.7,61"/>
		<path class="st4" d="M29.7,61c0,2.2-1.8,4-3.9,4c-2.2,0-3.9-1.8-3.9-4c0-2.2,1.8-4,3.9-4C28,57.1,29.7,58.9,29.7,61"/>
		<path class="st4" d="M41.8,61c0,2.2-1.8,4-3.9,4c-2.2,0-3.9-1.8-3.9-4c0-2.2,1.8-4,3.9-4C40,57.1,41.8,58.9,41.8,61"/>
		<path class="st4" d="M53.8,61c0,2.2-1.8,4-3.9,4s-3.9-1.8-3.9-4c0-2.2,1.8-4,3.9-4S53.8,58.9,53.8,61"/>
		<path class="st4" d="M65.8,61c0,2.2-1.8,4-3.9,4c-2.2,0-3.9-1.8-3.9-4c0-2.2,1.8-4,3.9-4C64,57.1,65.8,58.9,65.8,61"/>
		<path class="st4" d="M77.8,61c0,2.2-1.8,4-3.9,4c-2.2,0-3.9-1.8-3.9-4c0-2.2,1.8-4,3.9-4C76.1,57.1,77.8,58.9,77.8,61"/>
		<path class="st4" d="M89.9,61c0,2.2-1.8,4-3.9,4S82,63.2,82,61c0-2.2,1.8-4,3.9-4S89.9,58.9,89.9,61"/>
		<path class="st4" d="M101.9,61c0,2.2-1.8,4-3.9,4S94,63.2,94,61c0-2.2,1.8-4,3.9-4S101.9,58.9,101.9,61"/>
		<path class="st4" d="M113.9,61c0,2.2-1.8,4-3.9,4c-2.2,0-3.9-1.8-3.9-4c0-2.2,1.8-4,3.9-4C112.1,57.1,113.9,58.9,113.9,61"/>
		<path class="st4" d="M125.9,61c0,2.2-1.8,4-3.9,4c-2.2,0-3.9-1.8-3.9-4c0-2.2,1.8-4,3.9-4C124.2,57.1,125.9,58.9,125.9,61"/>
		<path class="st4" d="M17.7,71.6c0,2.2-1.8,4-3.9,4s-3.9-1.8-3.9-4c0-2.2,1.8-4,3.9-4S17.7,69.4,17.7,71.6"/>
		<path class="st4" d="M29.7,71.6c0,2.2-1.8,4-3.9,4c-2.2,0-3.9-1.8-3.9-4c0-2.2,1.8-4,3.9-4C28,67.6,29.7,69.4,29.7,71.6"/>
		<path class="st4" d="M41.8,71.6c0,2.2-1.8,4-3.9,4c-2.2,0-3.9-1.8-3.9-4c0-2.2,1.8-4,3.9-4C40,67.6,41.8,69.4,41.8,71.6"/>
		<path class="st4" d="M53.8,71.6c0,2.2-1.8,4-3.9,4s-3.9-1.8-3.9-4c0-2.2,1.8-4,3.9-4S53.8,69.4,53.8,71.6"/>
		<path class="st4" d="M65.8,71.6c0,2.2-1.8,4-3.9,4c-2.2,0-3.9-1.8-3.9-4c0-2.2,1.8-4,3.9-4C64,67.6,65.8,69.4,65.8,71.6"/>
		<path class="st4" d="M77.8,71.6c0,2.2-1.8,4-3.9,4c-2.2,0-3.9-1.8-3.9-4c0-2.2,1.8-4,3.9-4C76.1,67.6,77.8,69.4,77.8,71.6"/>
		<path class="st4" d="M89.9,71.6c0,2.2-1.8,4-3.9,4s-3.9-1.8-3.9-4c0-2.2,1.8-4,3.9-4S89.9,69.4,89.9,71.6"/>
		<path class="st4" d="M101.9,71.6c0,2.2-1.8,4-3.9,4s-3.9-1.8-3.9-4c0-2.2,1.8-4,3.9-4S101.9,69.4,101.9,71.6"/>
		<path class="st4" d="M113.9,71.6c0,2.2-1.8,4-3.9,4c-2.2,0-3.9-1.8-3.9-4c0-2.2,1.8-4,3.9-4C112.1,67.6,113.9,69.4,113.9,71.6"/>
		<path class="st4" d="M125.9,71.6c0,2.2-1.8,4-3.9,4c-2.2,0-3.9-1.8-3.9-4c0-2.2,1.8-4,3.9-4C124.2,67.6,125.9,69.4,125.9,71.6"/>
		<path class="st4" d="M17.7,82.1c0,2.2-1.8,4-3.9,4s-3.9-1.8-3.9-4c0-2.2,1.8-4,3.9-4S17.7,79.9,17.7,82.1"/>
		<path class="st4" d="M29.7,82.1c0,2.2-1.8,4-3.9,4c-2.2,0-3.9-1.8-3.9-4c0-2.2,1.8-4,3.9-4C28,78.1,29.7,79.9,29.7,82.1"/>
		<path class="st4" d="M41.8,82.1c0,2.2-1.8,4-3.9,4c-2.2,0-3.9-1.8-3.9-4c0-2.2,1.8-4,3.9-4C40,78.1,41.8,79.9,41.8,82.1"/>
		<path class="st4" d="M53.8,82.1c0,2.2-1.8,4-3.9,4s-3.9-1.8-3.9-4c0-2.2,1.8-4,3.9-4S53.8,79.9,53.8,82.1"/>
		<path class="st4" d="M65.8,82.1c0,2.2-1.8,4-3.9,4c-2.2,0-3.9-1.8-3.9-4c0-2.2,1.8-4,3.9-4C64,78.1,65.8,79.9,65.8,82.1"/>
		<path class="st4" d="M77.8,82.1c0,2.2-1.8,4-3.9,4c-2.2,0-3.9-1.8-3.9-4c0-2.2,1.8-4,3.9-4C76.1,78.1,77.8,79.9,77.8,82.1"/>
		<path class="st4" d="M89.9,82.1c0,2.2-1.8,4-3.9,4s-3.9-1.8-3.9-4c0-2.2,1.8-4,3.9-4S89.9,79.9,89.9,82.1"/>
		<path class="st4" d="M101.9,82.1c0,2.2-1.8,4-3.9,4s-3.9-1.8-3.9-4c0-2.2,1.8-4,3.9-4S101.9,79.9,101.9,82.1"/>
		<path class="st4" d="M113.9,82.1c0,2.2-1.8,4-3.9,4c-2.2,0-3.9-1.8-3.9-4c0-2.2,1.8-4,3.9-4C112.1,78.1,113.9,79.9,113.9,82.1"/>
		<path class="st4" d="M125.9,82.1c0,2.2-1.8,4-3.9,4c-2.2,0-3.9-1.8-3.9-4c0-2.2,1.8-4,3.9-4C124.2,78.1,125.9,79.9,125.9,82.1"/>
		<path class="st4" d="M17.7,92.6c0,2.2-1.8,4-3.9,4s-3.9-1.8-3.9-4c0-2.2,1.8-4,3.9-4S17.7,90.4,17.7,92.6"/>
		<path class="st4" d="M29.7,92.6c0,2.2-1.8,4-3.9,4c-2.2,0-3.9-1.8-3.9-4c0-2.2,1.8-4,3.9-4C28,88.7,29.7,90.4,29.7,92.6"/>
		<path class="st4" d="M41.8,92.6c0,2.2-1.8,4-3.9,4c-2.2,0-3.9-1.8-3.9-4c0-2.2,1.8-4,3.9-4C40,88.7,41.8,90.4,41.8,92.6"/>
		<path class="st4" d="M53.8,92.6c0,2.2-1.8,4-3.9,4s-3.9-1.8-3.9-4c0-2.2,1.8-4,3.9-4S53.8,90.4,53.8,92.6"/>
		<path class="st4" d="M65.8,92.6c0,2.2-1.8,4-3.9,4c-2.2,0-3.9-1.8-3.9-4c0-2.2,1.8-4,3.9-4C64,88.7,65.8,90.4,65.8,92.6"/>
		<path class="st4" d="M77.8,92.6c0,2.2-1.8,4-3.9,4c-2.2,0-3.9-1.8-3.9-4c0-2.2,1.8-4,3.9-4C76.1,88.7,77.8,90.4,77.8,92.6"/>
		<path class="st4" d="M89.9,92.6c0,2.2-1.8,4-3.9,4s-3.9-1.8-3.9-4c0-2.2,1.8-4,3.9-4S89.9,90.4,89.9,92.6"/>
		<path class="st4" d="M101.9,92.6c0,2.2-1.8,4-3.9,4s-3.9-1.8-3.9-4c0-2.2,1.8-4,3.9-4S101.9,90.4,101.9,92.6"/>
		<path class="st4" d="M113.9,92.6c0,2.2-1.8,4-3.9,4c-2.2,0-3.9-1.8-3.9-4c0-2.2,1.8-4,3.9-4C112.1,88.7,113.9,90.4,113.9,92.6"/>
		<path class="st4" d="M125.9,92.6c0,2.2-1.8,4-3.9,4c-2.2,0-3.9-1.8-3.9-4c0-2.2,1.8-4,3.9-4C124.2,88.7,125.9,90.4,125.9,92.6"/>
		<path class="st4" d="M17.7,103.2c0,2.2-1.8,4-3.9,4s-3.9-1.8-3.9-4c0-2.2,1.8-4,3.9-4S17.7,101,17.7,103.2"/>
		<path class="st4" d="M29.7,103.2c0,2.2-1.8,4-3.9,4c-2.2,0-3.9-1.8-3.9-4c0-2.2,1.8-4,3.9-4C28,99.2,29.7,101,29.7,103.2"/>
		<path class="st4" d="M41.8,103.2c0,2.2-1.8,4-3.9,4c-2.2,0-3.9-1.8-3.9-4c0-2.2,1.8-4,3.9-4C40,99.2,41.8,101,41.8,103.2"/>
		<path class="st4" d="M53.8,103.2c0,2.2-1.8,4-3.9,4s-3.9-1.8-3.9-4c0-2.2,1.8-4,3.9-4S53.8,101,53.8,103.2"/>
		<path class="st4" d="M65.8,103.2c0,2.2-1.8,4-3.9,4c-2.2,0-3.9-1.8-3.9-4c0-2.2,1.8-4,3.9-4C64,99.2,65.8,101,65.8,103.2"/>
		<path class="st4" d="M77.8,103.2c0,2.2-1.8,4-3.9,4c-2.2,0-3.9-1.8-3.9-4c0-2.2,1.8-4,3.9-4C76.1,99.2,77.8,101,77.8,103.2"/>
		<path class="st4" d="M89.9,103.2c0,2.2-1.8,4-3.9,4s-3.9-1.8-3.9-4c0-2.2,1.8-4,3.9-4S89.9,101,89.9,103.2"/>
		<path class="st4" d="M101.9,103.2c0,2.2-1.8,4-3.9,4s-3.9-1.8-3.9-4c0-2.2,1.8-4,3.9-4S101.9,101,101.9,103.2"/>
		<path class="st4" d="M113.9,103.2c0,2.2-1.8,4-3.9,4c-2.2,0-3.9-1.8-3.9-4c0-2.2,1.8-4,3.9-4C112.1,99.2,113.9,101,113.9,103.2"/>
		<path class="st4" d="M125.9,103.2c0,2.2-1.8,4-3.9,4c-2.2,0-3.9-1.8-3.9-4c0-2.2,1.8-4,3.9-4C124.2,99.2,125.9,101,125.9,103.2"/>
		<path class="st4" d="M17.7,113.7c0,2.2-1.8,4-3.9,4s-3.9-1.8-3.9-4c0-2.2,1.8-4,3.9-4S17.7,111.5,17.7,113.7"/>
		<path class="st4" d="M29.7,113.7c0,2.2-1.8,4-3.9,4c-2.2,0-3.9-1.8-3.9-4c0-2.2,1.8-4,3.9-4C28,109.7,29.7,111.5,29.7,113.7"/>
		<path class="st4" d="M41.8,113.7c0,2.2-1.8,4-3.9,4c-2.2,0-3.9-1.8-3.9-4c0-2.2,1.8-4,3.9-4C40,109.7,41.8,111.5,41.8,113.7"/>
		<path class="st4" d="M53.8,113.7c0,2.2-1.8,4-3.9,4s-3.9-1.8-3.9-4c0-2.2,1.8-4,3.9-4S53.8,111.5,53.8,113.7"/>
		<path class="st4" d="M65.8,113.7c0,2.2-1.8,4-3.9,4c-2.2,0-3.9-1.8-3.9-4c0-2.2,1.8-4,3.9-4C64,109.7,65.8,111.5,65.8,113.7"/>
		<path class="st4" d="M77.8,113.7c0,2.2-1.8,4-3.9,4c-2.2,0-3.9-1.8-3.9-4c0-2.2,1.8-4,3.9-4C76.1,109.7,77.8,111.5,77.8,113.7"/>
		<path class="st4" d="M89.9,113.7c0,2.2-1.8,4-3.9,4s-3.9-1.8-3.9-4c0-2.2,1.8-4,3.9-4S89.9,111.5,89.9,113.7"/>
		<path class="st4" d="M101.9,113.7c0,2.2-1.8,4-3.9,4s-3.9-1.8-3.9-4c0-2.2,1.8-4,3.9-4S101.9,111.5,101.9,113.7"/>
		<path class="st4" d="M113.9,113.7c0,2.2-1.8,4-3.9,4c-2.2,0-3.9-1.8-3.9-4c0-2.2,1.8-4,3.9-4C112.1,109.7,113.9,111.5,113.9,113.7
			"/>
		<path class="st4" d="M125.9,113.7c0,2.2-1.8,4-3.9,4c-2.2,0-3.9-1.8-3.9-4c0-2.2,1.8-4,3.9-4C124.2,109.7,125.9,111.5,125.9,113.7
			"/>
		<path class="st4" d="M17.7,124.2c0,2.2-1.8,4-3.9,4s-3.9-1.8-3.9-4c0-2.2,1.8-4,3.9-4S17.7,122,17.7,124.2"/>
		<path class="st4" d="M29.7,124.2c0,2.2-1.8,4-3.9,4c-2.2,0-3.9-1.8-3.9-4c0-2.2,1.8-4,3.9-4C28,120.3,29.7,122,29.7,124.2"/>
		<path class="st4" d="M41.8,124.2c0,2.2-1.8,4-3.9,4c-2.2,0-3.9-1.8-3.9-4c0-2.2,1.8-4,3.9-4C40,120.3,41.8,122,41.8,124.2"/>
		<path class="st4" d="M53.8,124.2c0,2.2-1.8,4-3.9,4s-3.9-1.8-3.9-4c0-2.2,1.8-4,3.9-4S53.8,122,53.8,124.2"/>
		<path class="st4" d="M65.8,124.2c0,2.2-1.8,4-3.9,4c-2.2,0-3.9-1.8-3.9-4c0-2.2,1.8-4,3.9-4C64,120.3,65.8,122,65.8,124.2"/>
		<path class="st4" d="M77.8,124.2c0,2.2-1.8,4-3.9,4c-2.2,0-3.9-1.8-3.9-4c0-2.2,1.8-4,3.9-4C76.1,120.3,77.8,122,77.8,124.2"/>
		<path class="st4" d="M89.9,124.2c0,2.2-1.8,4-3.9,4s-3.9-1.8-3.9-4c0-2.2,1.8-4,3.9-4S89.9,122,89.9,124.2"/>
		<path class="st4" d="M101.9,124.2c0,2.2-1.8,4-3.9,4s-3.9-1.8-3.9-4c0-2.2,1.8-4,3.9-4S101.9,122,101.9,124.2"/>
		<path class="st4" d="M113.9,124.2c0,2.2-1.8,4-3.9,4c-2.2,0-3.9-1.8-3.9-4c0-2.2,1.8-4,3.9-4C112.1,120.3,113.9,122,113.9,124.2"
			/>
		<path class="st4" d="M125.9,124.2c0,2.2-1.8,4-3.9,4c-2.2,0-3.9-1.8-3.9-4c0-2.2,1.8-4,3.9-4C124.2,120.3,125.9,122,125.9,124.2"
			/>
	</g>
</g>
</svg>
